<svg id="Group_21016" data-name="Group 21016" xmlns="http://www.w3.org/2000/svg" xmlns:xlink="http://www.w3.org/1999/xlink" width="24.565" height="20.601" viewBox="0 0 24.565 20.601">
  <defs>
    <clipPath id="clip-path">
      <rect id="Rectangle_10091" data-name="Rectangle 10091" width="9.685" height="9.083" transform="translate(12.451 11.517)" fill="#ed1515"/>
    </clipPath>
    <clipPath id="clip-path-2">
      <rect id="Rectangle_10092" data-name="Rectangle 10092" width="9.657" height="9.086" transform="translate(2.175 11.508)" fill="#ed1515"/>
    </clipPath>
  </defs>
  <g id="Group_21013" data-name="Group 21013">
    <g id="Group_21009" data-name="Group 21009">
      <g id="Group_21014" data-name="Group 21014">
        <path id="Path_16713" data-name="Path 16713" d="M12.38.851a.572.572,0,0,0-.532,0L2.782,5.536c-.044.024-.112.036-.111.1s.069.072.113.1C3.85,6.292,4.9,6.872,5.96,7.445c.865.469,1.734.929,2.6,1.393l2.852,1.527a1.041,1.041,0,0,1,.157.1.2.2,0,0,1,.067.274l-.018.026c-.688,1.072-1.288,2.2-1.937,3.292-.06.1-.1.215-.166.315-.094.152-.147.162-.3.072-1.045-.606-2.13-1.134-3.191-1.711-1.193-.649-2.4-1.279-3.6-1.913q-1-.542-2-1.081A.8.8,0,0,1,.109,8.625c.551-.953,1.11-1.9,1.626-2.873a2.327,2.327,0,0,1,1.026-.983C3.752,4.235,4.752,3.71,5.74,3.176L11.883.062a.578.578,0,0,1,.529.005l8.757,4.647c.261.137.516.286.773.433a2.2,2.2,0,0,1,.7.7l1.32,2.335q.294.486.566.985c.076.141.043.233-.134.312-.3.133-.574.3-.86.446l-4.345,2.3q-2.022,1.073-4.04,2.149c-.221.117-.263.107-.384-.1l-1.729-2.981a.846.846,0,0,1,.324-1.173c.8-.423,1.61-.808,2.407-1.225.6-.314,1.184-.642,1.788-.939.691-.34,1.38-.686,2.057-1.052.654-.354,1.317-.691,1.983-1.022.041-.02.1-.033.1-.086s-.066-.059-.1-.08Z" fill="#ed1515"/>
        <g id="Group_21004" data-name="Group 21004" style="isolation: isolate">
          <g id="Group_21003" data-name="Group 21003">
            <g id="Group_21002" data-name="Group 21002" clip-path="url(#clip-path)">
              <path id="Path_16714" data-name="Path 16714" d="M12.455,16.41V13.344c0-.361.012-.722.02-1.083a.443.443,0,0,1,.025-.139c.044-.119.13-.139.215-.043a1.348,1.348,0,0,1,.153.222q.741,1.277,1.478,2.554c.265.461.357.486.82.239q1.547-.826,3.1-1.644l3.461-1.84c.046-.024.092-.05.14-.07a.174.174,0,0,1,.237.065.169.169,0,0,1,.023.079.906.906,0,0,1,.007.156v3.494a.357.357,0,0,1-.215.36q-1.955,1.031-3.905,2.068l-5.047,2.684c-.08.042-.159.087-.242.123-.166.071-.244.024-.253-.157-.011-.228-.021-.456-.021-.684V16.405Z" fill="#ed1515"/>
            </g>
          </g>
        </g>
        <g id="Group_21007" data-name="Group 21007" style="isolation: isolate">
          <g id="Group_21006" data-name="Group 21006">
            <g id="Group_21005" data-name="Group 21005" clip-path="url(#clip-path-2)">
              <path id="Path_16715" data-name="Path 16715" d="M11.833,16.338v3.906c0,.385-.072.428-.41.248Q8.861,19.133,6.3,17.771q-1.97-1.046-3.944-2.085a.3.3,0,0,1-.177-.3V11.77a.343.343,0,0,1,.024-.182c.064-.11.156-.089.247-.042.262.135.524.27.784.408l4.029,2.137q1,.531,2,1.066c.31.166.435.139.616-.171.518-.886,1.03-1.775,1.546-2.662a2.159,2.159,0,0,1,.122-.193.134.134,0,0,1,.145-.068.158.158,0,0,1,.121.127,1.255,1.255,0,0,1,.018.212v3.935" fill="#ed1515"/>
            </g>
          </g>
        </g>
      </g>
    </g>
  </g>
</svg>
